<svg id="svg" version="1.1" xmlns="http://www.w3.org/2000/svg" xmlns:xlink="http://www.w3.org/1999/xlink" width="400" height="226.72292545710266" viewBox="0, 0, 400,226.72292545710266"><g id="svgg"><path id="path0" d="M109.410 38.915 C 106.330 39.056,101.473 39.511,101.361 39.670 C 101.298 39.758,99.972 40.016,98.413 40.242 C 96.854 40.469,95.527 40.716,95.465 40.792 C 95.402 40.868,94.331 41.197,93.084 41.523 C 89.657 42.421,87.436 43.096,87.305 43.280 C 87.241 43.371,86.550 43.636,85.771 43.868 C 84.991 44.100,84.354 44.355,84.354 44.435 C 84.354 44.515,83.971 44.713,83.503 44.875 C 82.342 45.277,77.504 47.651,77.156 47.989 C 77.002 48.140,76.517 48.381,76.079 48.525 C 75.642 48.670,75.283 48.877,75.283 48.987 C 75.283 49.096,74.850 49.377,74.320 49.612 C 73.790 49.847,73.216 50.209,73.045 50.417 C 72.874 50.624,72.632 50.794,72.508 50.794 C 72.384 50.794,71.796 51.151,71.202 51.587 C 70.607 52.024,70.031 52.381,69.922 52.381 C 69.813 52.381,69.596 52.585,69.440 52.834 C 69.285 53.084,69.009 53.288,68.827 53.288 C 68.645 53.288,68.387 53.492,68.254 53.741 C 68.120 53.991,67.868 54.195,67.692 54.195 C 67.516 54.195,67.239 54.375,67.076 54.596 C 66.913 54.816,66.522 55.161,66.207 55.361 C 65.437 55.852,64.609 56.569,63.168 57.993 C 62.506 58.648,61.893 59.184,61.806 59.184 C 61.598 59.184,59.184 61.602,59.184 61.811 C 59.184 61.900,58.648 62.514,57.993 63.174 C 57.338 63.835,56.446 64.844,56.009 65.417 C 55.573 65.990,54.986 66.677,54.705 66.944 C 54.425 67.210,54.195 67.560,54.195 67.720 C 54.195 67.880,53.991 68.120,53.741 68.254 C 53.492 68.387,53.288 68.640,53.288 68.816 C 53.288 68.992,53.109 69.269,52.890 69.432 C 52.671 69.595,52.291 70.111,52.045 70.578 C 51.799 71.046,51.530 71.429,51.448 71.429 C 51.366 71.429,51.129 71.786,50.922 72.222 C 50.715 72.659,50.464 73.016,50.364 73.016 C 50.264 73.016,49.991 73.450,49.757 73.980 C 49.524 74.510,49.217 75.016,49.076 75.106 C 48.936 75.195,48.635 75.756,48.408 76.353 C 48.181 76.950,47.875 77.540,47.729 77.664 C 47.582 77.789,47.323 78.248,47.153 78.685 C 46.984 79.121,46.715 79.611,46.558 79.772 C 46.400 79.934,46.144 80.495,45.989 81.019 C 45.835 81.544,45.590 82.095,45.445 82.244 C 45.300 82.393,45.045 82.979,44.877 83.548 C 44.709 84.116,44.500 84.580,44.411 84.580 C 44.322 84.580,44.079 85.167,43.871 85.884 C 43.663 86.601,43.420 87.239,43.331 87.302 C 43.242 87.364,42.981 88.129,42.750 89.002 C 42.520 89.875,42.256 90.641,42.165 90.703 C 42.073 90.765,41.787 91.735,41.530 92.857 C 41.272 93.980,40.912 95.423,40.731 96.065 C 40.549 96.706,40.272 98.237,40.114 99.466 C 39.956 100.695,39.753 101.752,39.662 101.815 C 38.794 102.415,38.800 124.121,39.668 124.717 C 39.759 124.779,39.954 125.697,40.101 126.757 C 40.650 130.718,40.885 131.087,42.125 129.932 C 42.392 129.683,42.766 129.478,42.954 129.478 C 43.165 129.478,43.246 129.348,43.166 129.138 C 43.089 128.939,43.163 128.798,43.343 128.798 C 43.634 128.798,44.047 128.490,45.717 127.033 C 46.983 125.928,47.394 125.624,47.622 125.624 C 47.745 125.624,47.846 125.476,47.846 125.296 C 47.846 125.116,48.151 124.788,48.525 124.568 C 49.364 124.072,49.763 122.442,49.157 121.987 C 48.486 121.482,48.523 105.396,49.199 104.120 C 49.309 103.912,49.582 102.440,49.805 100.850 C 50.028 99.260,50.290 97.959,50.388 97.959 C 50.487 97.959,50.567 97.795,50.567 97.595 C 50.567 96.898,51.323 94.104,51.511 94.104 C 51.615 94.104,51.701 93.912,51.701 93.677 C 51.701 93.186,52.405 90.873,52.606 90.703 C 52.680 90.641,52.881 90.130,53.054 89.569 C 53.226 89.008,53.492 88.294,53.645 87.982 C 54.968 85.284,56.009 82.999,56.009 82.791 C 56.009 82.653,56.091 82.540,56.192 82.540 C 56.293 82.540,56.566 82.106,56.800 81.576 C 57.034 81.046,57.360 80.477,57.524 80.313 C 57.689 80.148,57.823 79.893,57.823 79.746 C 57.824 79.599,58.076 79.186,58.383 78.828 C 58.691 78.470,59.073 77.883,59.232 77.524 C 59.391 77.165,59.596 76.871,59.687 76.871 C 59.778 76.871,60.013 76.559,60.210 76.178 C 60.407 75.798,60.741 75.297,60.953 75.066 C 61.165 74.835,61.693 74.152,62.127 73.548 C 62.561 72.943,63.122 72.226,63.374 71.954 C 63.626 71.682,64.291 70.935,64.853 70.294 C 65.846 69.160,68.201 66.762,70.322 64.725 C 70.899 64.172,71.480 63.719,71.613 63.719 C 71.747 63.719,71.990 63.540,72.153 63.322 C 72.316 63.103,72.943 62.568,73.548 62.131 C 74.152 61.695,74.835 61.165,75.066 60.953 C 75.297 60.741,75.798 60.407,76.178 60.210 C 76.559 60.013,76.871 59.778,76.871 59.687 C 76.871 59.596,77.165 59.391,77.524 59.232 C 77.883 59.073,78.470 58.691,78.828 58.383 C 79.186 58.076,79.599 57.824,79.746 57.823 C 79.893 57.823,80.148 57.694,80.313 57.536 C 80.477 57.378,81.633 56.741,82.880 56.120 C 84.127 55.500,85.198 54.931,85.261 54.856 C 85.323 54.781,85.884 54.532,86.508 54.301 C 87.132 54.070,87.846 53.761,88.095 53.613 C 88.345 53.466,89.033 53.208,89.626 53.040 C 90.218 52.873,90.703 52.667,90.703 52.583 C 90.703 52.500,91.392 52.248,92.234 52.023 C 93.075 51.799,93.815 51.552,93.878 51.475 C 94.007 51.315,97.054 50.567,97.576 50.567 C 97.766 50.567,97.955 50.469,97.997 50.350 C 98.039 50.230,99.348 49.956,100.907 49.741 C 102.466 49.526,103.794 49.274,103.858 49.181 C 104.332 48.495,121.539 48.497,121.988 49.183 C 122.054 49.284,122.772 49.439,123.583 49.525 C 125.594 49.740,127.980 50.170,128.118 50.342 C 128.180 50.420,129.147 50.673,130.265 50.905 C 131.384 51.136,132.558 51.461,132.873 51.627 C 133.189 51.792,134.033 52.050,134.751 52.200 C 135.468 52.349,136.054 52.544,136.054 52.632 C 136.054 52.720,136.309 52.674,136.620 52.530 C 136.930 52.386,137.185 52.140,137.186 51.984 C 137.187 51.828,137.295 51.701,137.425 51.701 C 137.555 51.701,137.784 51.599,137.935 51.476 C 139.352 50.312,140.638 49.433,140.923 49.433 C 141.114 49.433,141.270 49.334,141.270 49.213 C 141.270 49.093,141.099 49.059,140.890 49.139 C 140.614 49.246,140.644 49.152,141.004 48.792 C 141.275 48.521,141.591 48.325,141.707 48.356 C 141.823 48.387,142.086 48.209,142.291 47.959 C 142.496 47.710,142.595 47.659,142.511 47.846 C 142.427 48.033,142.631 47.853,142.966 47.447 C 143.300 47.040,143.653 46.757,143.749 46.816 C 144.088 47.026,144.892 45.935,144.664 45.575 C 144.477 45.278,144.451 45.278,144.444 45.578 C 144.440 45.795,144.377 45.829,144.271 45.674 C 144.067 45.374,142.667 44.671,142.274 44.671 C 142.117 44.671,141.954 44.595,141.912 44.501 C 141.871 44.408,141.173 44.103,140.363 43.825 C 136.752 42.586,136.128 42.362,135.488 42.071 C 135.113 41.902,133.889 41.584,132.766 41.365 C 131.644 41.147,130.675 40.899,130.612 40.814 C 130.482 40.638,126.244 39.909,125.349 39.909 C 125.022 39.909,124.720 39.819,124.679 39.709 C 124.523 39.297,113.550 38.726,109.410 38.915 M109.646 62.621 C 107.780 62.734,106.198 62.902,106.131 62.995 C 106.064 63.087,104.887 63.349,103.515 63.577 C 102.143 63.804,100.969 64.061,100.907 64.147 C 100.845 64.234,100.024 64.483,99.083 64.700 C 98.142 64.918,97.122 65.225,96.815 65.382 C 96.509 65.539,95.672 65.851,94.955 66.075 C 94.238 66.299,93.651 66.555,93.651 66.643 C 93.651 66.731,93.141 66.987,92.517 67.212 C 91.893 67.436,91.383 67.691,91.383 67.778 C 91.383 67.866,90.873 68.121,90.249 68.345 C 89.626 68.570,89.116 68.824,89.116 68.911 C 89.116 68.997,88.656 69.257,88.095 69.489 C 87.534 69.720,87.075 69.999,87.075 70.108 C 87.075 70.217,86.845 70.397,86.565 70.508 C 86.284 70.618,85.850 70.869,85.601 71.065 C 85.351 71.261,84.586 71.824,83.900 72.316 C 81.739 73.868,81.138 74.402,78.143 77.430 C 74.483 81.131,74.150 81.497,74.150 81.814 C 74.150 81.955,73.946 82.179,73.696 82.313 C 73.447 82.446,73.242 82.680,73.242 82.831 C 73.242 82.983,72.935 83.464,72.561 83.900 C 72.186 84.337,71.822 84.872,71.752 85.091 C 71.682 85.309,71.549 85.488,71.457 85.488 C 71.364 85.488,71.039 86.048,70.735 86.732 C 70.430 87.417,70.110 87.978,70.022 87.980 C 69.935 87.981,69.430 88.875,68.901 89.966 C 68.372 91.057,67.882 92.001,67.812 92.063 C 67.742 92.126,67.485 92.789,67.241 93.537 C 66.997 94.286,66.720 94.953,66.625 95.021 C 66.530 95.089,66.271 95.854,66.049 96.722 C 65.828 97.589,65.568 98.358,65.471 98.429 C 65.375 98.500,65.135 99.419,64.938 100.470 C 64.741 101.521,64.493 102.488,64.387 102.618 C 64.281 102.749,64.191 103.055,64.188 103.298 C 64.186 103.542,64.086 104.303,63.967 104.989 C 63.731 106.348,63.427 113.071,63.632 112.398 C 63.710 112.144,63.890 112.035,64.100 112.116 C 64.317 112.199,64.484 112.084,64.558 111.800 C 64.622 111.554,64.868 111.292,65.104 111.217 C 65.340 111.142,65.639 110.883,65.768 110.642 C 65.897 110.401,66.126 110.201,66.278 110.198 C 66.429 110.194,66.848 109.891,67.208 109.524 C 67.569 109.156,67.967 108.920,68.094 108.998 C 68.230 109.082,68.254 109.027,68.153 108.863 C 68.044 108.687,68.155 108.541,68.458 108.462 C 68.720 108.393,68.934 108.196,68.934 108.023 C 68.934 107.851,69.144 107.710,69.401 107.710 C 69.658 107.710,69.805 107.608,69.728 107.483 C 69.651 107.358,69.735 107.256,69.915 107.256 C 70.095 107.256,70.299 107.039,70.368 106.773 C 70.455 106.443,70.610 106.335,70.860 106.431 C 71.061 106.508,71.168 106.477,71.097 106.363 C 71.026 106.249,71.171 106.091,71.419 106.012 C 71.667 105.933,72.056 105.645,72.283 105.372 C 72.810 104.737,74.125 103.608,73.714 104.144 C 73.443 104.496,73.453 104.527,73.794 104.396 C 74.071 104.290,74.145 104.093,74.049 103.711 C 73.975 103.416,74.014 103.175,74.135 103.175 C 74.257 103.175,74.423 102.817,74.505 102.381 C 74.587 101.944,74.751 101.587,74.870 101.587 C 74.990 101.587,75.022 101.383,74.943 101.134 C 74.864 100.884,74.892 100.680,75.005 100.680 C 75.118 100.680,75.346 100.119,75.510 99.433 C 75.675 98.747,75.895 98.186,76.000 98.186 C 76.105 98.186,76.176 98.109,76.158 98.016 C 76.105 97.736,76.602 96.598,77.668 94.558 C 78.222 93.498,78.856 92.273,79.077 91.837 C 79.298 91.400,79.557 91.008,79.653 90.966 C 79.749 90.923,79.984 90.587,80.175 90.218 C 80.518 89.554,80.973 88.934,81.636 88.228 C 81.824 88.027,82.197 87.557,82.463 87.183 C 83.030 86.386,87.717 81.635,87.942 81.628 C 88.026 81.626,88.503 81.268,89.002 80.832 C 89.501 80.397,90.088 79.984,90.306 79.914 C 90.524 79.845,90.703 79.690,90.703 79.571 C 90.703 79.452,90.933 79.255,91.213 79.133 C 91.830 78.866,92.503 78.444,92.920 78.061 C 93.091 77.905,93.375 77.778,93.554 77.778 C 93.732 77.778,94.060 77.595,94.284 77.371 C 94.508 77.148,95.043 76.824,95.475 76.653 C 95.906 76.482,96.393 76.238,96.556 76.113 C 96.813 75.916,98.760 75.162,99.433 74.998 C 99.558 74.968,99.716 74.868,99.785 74.775 C 99.854 74.683,100.620 74.435,101.486 74.224 C 102.352 74.013,103.112 73.768,103.175 73.678 C 103.237 73.588,104.461 73.330,105.896 73.106 C 107.330 72.881,108.558 72.620,108.624 72.526 C 108.691 72.432,109.456 72.305,110.325 72.245 C 112.203 72.114,112.414 72.070,113.152 71.654 C 113.464 71.477,113.846 71.359,114.002 71.391 C 114.158 71.423,114.286 71.252,114.286 71.013 C 114.286 70.466,114.853 69.976,115.292 70.144 C 115.493 70.222,115.678 70.100,115.762 69.834 C 115.838 69.593,116.261 69.225,116.702 69.016 C 117.142 68.807,117.612 68.397,117.745 68.105 C 117.878 67.813,118.057 67.574,118.142 67.574 C 118.228 67.574,118.531 67.372,118.815 67.125 C 119.100 66.878,119.439 66.742,119.569 66.822 C 119.716 66.913,119.748 66.820,119.656 66.579 C 119.561 66.332,119.595 66.244,119.749 66.339 C 119.882 66.422,120.142 66.274,120.326 66.011 C 120.510 65.748,120.782 65.529,120.931 65.525 C 121.369 65.513,122.270 64.659,122.113 64.405 C 121.973 64.179,122.265 64.080,122.846 64.155 C 123.495 64.240,123.004 63.416,122.336 63.299 C 122.086 63.256,121.831 63.150,121.769 63.065 C 121.706 62.980,121.502 62.906,121.315 62.901 C 121.128 62.896,120.414 62.827,119.728 62.747 C 117.348 62.470,113.021 62.416,109.646 62.621 M73.742 105.247 C 73.629 105.666,73.595 106.111,73.667 106.236 C 73.739 106.361,73.866 106.054,73.950 105.556 C 74.140 104.419,74.016 104.235,73.742 105.247 " stroke="none" fill="#0404f1" fill-rule="evenodd"></path><path id="path1" d="M154.876 89.455 C 154.584 89.766,154.304 89.980,154.255 89.931 C 154.205 89.882,153.818 90.188,153.394 90.612 C 152.970 91.036,152.540 91.383,152.439 91.383 C 152.141 91.383,151.497 92.237,151.663 92.413 C 151.746 92.501,151.559 92.497,151.247 92.404 C 150.935 92.310,150.756 92.314,150.848 92.411 C 151.090 92.666,150.590 93.192,150.236 93.056 C 150.059 92.988,149.812 93.224,149.630 93.636 C 149.455 94.031,149.150 94.331,148.924 94.331 C 148.705 94.331,148.552 94.417,148.583 94.521 C 148.666 94.801,147.275 95.918,146.844 95.918 C 146.640 95.918,146.377 96.173,146.259 96.485 C 146.140 96.797,145.907 97.052,145.740 97.052 C 145.573 97.052,145.218 97.256,144.950 97.506 C 144.682 97.755,144.351 97.959,144.214 97.959 C 144.076 97.959,144.027 98.061,144.104 98.186 C 144.181 98.311,144.152 98.413,144.040 98.413 C 143.927 98.413,143.301 98.924,142.649 99.550 C 141.997 100.175,141.393 100.643,141.307 100.590 C 141.049 100.430,140.306 101.086,140.462 101.337 C 140.543 101.468,140.280 101.655,139.861 101.764 C 139.345 101.898,139.114 102.093,139.110 102.396 C 139.107 102.684,138.971 102.812,138.713 102.768 C 138.473 102.727,138.322 102.847,138.322 103.079 C 138.322 103.405,138.270 103.414,137.938 103.146 C 137.648 102.910,137.598 102.906,137.733 103.130 C 137.918 103.439,136.853 104.534,136.366 104.535 C 136.225 104.535,135.981 104.691,135.823 104.880 C 135.580 105.173,135.602 105.203,135.966 105.079 C 136.264 104.978,136.222 105.062,135.828 105.355 L 135.261 105.776 135.941 105.923 C 138.366 106.444,144.457 105.935,145.631 105.113 C 145.907 104.920,146.289 104.760,146.479 104.758 C 146.802 104.754,148.151 103.951,149.411 103.013 C 150.454 102.237,152.797 99.796,152.944 99.333 C 153.025 99.076,153.171 98.866,153.269 98.866 C 153.366 98.866,153.637 98.433,153.871 97.902 C 154.105 97.372,154.364 96.888,154.447 96.825 C 154.570 96.733,155.356 94.363,155.725 92.971 C 155.774 92.783,155.871 91.789,155.940 90.760 C 156.081 88.669,155.864 88.403,154.876 89.455 M126.851 125.479 C 126.466 125.654,125.889 126.039,125.568 126.334 C 123.569 128.178,120.562 129.905,118.481 130.405 C 117.857 130.555,117.204 130.790,117.030 130.927 C 116.581 131.281,109.989 131.263,109.275 130.907 C 108.298 130.419,106.028 129.956,105.748 130.188 C 105.576 130.330,105.446 130.304,105.369 130.112 C 105.297 129.932,105.244 129.980,105.233 130.234 C 105.223 130.463,105.100 130.612,104.959 130.565 C 104.818 130.517,104.187 130.968,103.557 131.566 C 102.927 132.164,102.302 132.653,102.169 132.653 C 102.036 132.653,101.641 133.012,101.290 133.452 C 100.940 133.891,100.557 134.191,100.440 134.119 C 100.323 134.046,100.227 134.083,100.227 134.201 C 100.227 134.318,100.015 134.470,99.756 134.537 C 99.498 134.605,99.231 134.872,99.163 135.131 C 99.094 135.396,98.854 135.601,98.613 135.601 C 98.378 135.601,98.186 135.715,98.186 135.854 C 98.186 136.004,97.977 136.055,97.676 135.979 C 97.189 135.856,97.185 135.865,97.596 136.172 C 97.832 136.349,98.114 136.439,98.221 136.373 C 98.328 136.307,98.472 136.399,98.541 136.579 C 98.610 136.758,99.094 137.090,99.617 137.316 C 100.139 137.542,100.720 137.844,100.907 137.987 C 101.094 138.130,101.604 138.382,102.041 138.547 C 102.477 138.712,103.249 139.029,103.757 139.252 C 104.264 139.474,105.386 139.784,106.251 139.939 C 107.116 140.095,107.896 140.331,107.985 140.463 C 108.218 140.809,117.669 140.787,118.389 140.440 C 118.689 140.295,119.598 140.051,120.408 139.897 C 121.219 139.743,122.310 139.428,122.833 139.197 C 123.357 138.965,123.867 138.775,123.967 138.775 C 124.269 138.773,127.479 137.094,128.545 136.380 C 130.227 135.254,130.486 135.064,131.606 134.127 C 134.527 131.685,134.672 127.772,131.913 125.808 C 131.027 125.177,127.954 124.977,126.851 125.479 M86.683 144.012 C 86.904 144.140,87.015 144.357,86.931 144.493 C 86.839 144.642,86.883 144.676,87.040 144.579 C 87.521 144.282,87.309 144.793,86.811 145.131 C 86.541 145.315,86.141 145.635,85.923 145.843 C 85.704 146.051,85.462 146.157,85.384 146.079 C 85.306 146.002,85.190 146.141,85.125 146.390 C 85.060 146.638,84.505 147.184,83.892 147.602 C 83.280 148.020,82.824 148.436,82.879 148.525 C 82.935 148.615,82.600 148.881,82.136 149.117 C 81.672 149.353,81.258 149.624,81.216 149.718 C 81.175 149.812,81.059 149.839,80.959 149.777 C 80.859 149.715,80.791 149.842,80.808 150.059 C 80.826 150.294,80.679 150.454,80.444 150.456 C 80.227 150.457,80.048 150.534,80.047 150.626 C 80.046 150.718,80.045 150.902,80.045 151.034 C 80.045 151.166,80.147 151.211,80.272 151.134 C 80.397 151.057,80.499 151.146,80.499 151.332 C 80.499 151.518,80.703 151.735,80.952 151.814 C 81.202 151.893,81.406 152.104,81.406 152.283 C 81.406 152.462,81.511 152.608,81.639 152.608 C 81.767 152.608,82.552 153.169,83.383 153.855 C 84.215 154.541,85.024 155.102,85.180 155.102 C 85.337 155.102,85.547 155.241,85.646 155.411 C 85.746 155.582,86.166 155.913,86.580 156.148 C 86.995 156.384,87.811 156.851,88.395 157.186 C 90.818 158.580,95.176 160.635,96.290 160.910 C 96.647 160.998,97.143 161.197,97.392 161.353 C 97.642 161.509,98.662 161.804,99.660 162.009 C 100.658 162.214,101.656 162.482,101.879 162.604 C 102.899 163.163,108.771 163.700,108.467 163.207 C 108.325 162.976,108.817 162.528,109.587 162.188 C 109.933 162.034,110.276 161.755,110.348 161.567 C 110.420 161.378,110.622 161.224,110.795 161.224 C 110.969 161.224,111.111 161.081,111.111 160.907 C 111.111 160.732,111.416 160.482,111.789 160.352 C 112.268 160.185,112.427 160.011,112.331 159.761 C 112.232 159.502,112.294 159.444,112.560 159.545 C 112.761 159.623,112.925 159.573,112.925 159.435 C 112.925 159.297,113.026 159.184,113.149 159.184 C 113.494 159.184,114.286 158.438,114.286 158.113 C 114.286 157.954,114.522 157.823,114.812 157.823 C 115.337 157.823,116.408 156.846,116.157 156.595 C 116.084 156.522,116.191 156.463,116.394 156.463 C 116.598 156.463,116.878 156.251,117.016 155.991 C 117.166 155.712,117.404 155.573,117.603 155.649 C 117.791 155.721,117.877 155.679,117.799 155.553 C 117.722 155.429,117.911 155.232,118.218 155.116 C 119.670 154.564,119.022 154.422,115.052 154.422 C 112.840 154.422,110.717 154.326,110.334 154.209 C 109.951 154.093,108.415 153.831,106.920 153.627 C 105.426 153.423,104.099 153.175,103.972 153.076 C 103.845 152.977,102.976 152.714,102.041 152.491 C 101.105 152.268,100.289 152.014,100.227 151.926 C 100.164 151.839,99.590 151.595,98.951 151.385 C 97.755 150.992,92.946 148.600,92.744 148.299 C 92.681 148.205,92.230 147.916,91.742 147.655 C 91.253 147.395,90.794 147.101,90.721 147.003 C 90.649 146.906,90.054 146.468,89.400 146.032 C 88.745 145.595,88.209 145.162,88.209 145.068 C 88.209 144.974,88.096 144.898,87.958 144.898 C 87.820 144.898,87.506 144.643,87.261 144.331 C 87.016 144.019,86.695 143.767,86.548 143.771 C 86.401 143.775,86.462 143.883,86.683 144.012 M67.614 159.414 L 68.195 160.210 67.261 161.069 C 66.747 161.541,66.216 161.999,66.080 162.086 C 65.945 162.173,65.719 162.449,65.577 162.698 C 65.436 162.948,65.317 163.039,65.313 162.900 C 65.309 162.762,64.821 163.099,64.229 163.650 C 63.637 164.200,62.990 164.798,62.793 164.978 C 62.595 165.159,62.315 165.306,62.169 165.306 C 62.024 165.306,61.905 165.459,61.905 165.646 C 61.905 165.833,61.799 165.986,61.670 165.986 C 61.246 165.986,61.573 167.090,62.142 167.575 C 62.448 167.836,63.289 168.580,64.010 169.229 C 65.408 170.486,66.108 171.077,66.941 171.708 C 67.227 171.924,67.985 172.511,68.627 173.012 C 69.268 173.513,69.855 173.923,69.930 173.923 C 70.006 173.923,70.247 174.083,70.465 174.279 C 70.683 174.474,71.525 175.060,72.336 175.581 C 73.146 176.101,73.861 176.581,73.923 176.647 C 73.985 176.713,74.291 176.894,74.603 177.050 C 74.915 177.206,75.782 177.685,76.531 178.115 C 78.431 179.206,82.008 180.943,83.988 181.736 C 84.660 182.005,84.945 182.027,85.184 181.829 C 85.428 181.626,85.471 181.639,85.377 181.884 C 85.310 182.058,85.461 182.329,85.712 182.485 C 86.250 182.821,86.371 182.393,85.884 181.876 C 85.607 181.582,85.798 181.368,86.332 181.374 C 86.429 181.375,86.610 181.197,86.735 180.978 C 86.859 180.759,87.414 180.179,87.968 179.689 C 88.521 179.199,88.898 178.926,88.805 179.082 C 88.712 179.238,88.737 179.365,88.860 179.365 C 88.984 179.365,89.150 179.161,89.229 178.912 C 89.388 178.412,89.791 178.293,89.805 178.741 C 89.810 178.897,89.954 178.701,90.126 178.306 C 90.401 177.675,91.172 177.016,91.662 176.992 C 91.753 176.988,91.990 176.753,92.188 176.470 C 92.386 176.187,92.650 176.019,92.775 176.096 C 92.899 176.173,93.057 176.023,93.125 175.762 C 93.193 175.502,93.328 175.337,93.424 175.397 C 93.521 175.456,93.731 175.347,93.891 175.153 C 94.148 174.845,94.102 174.821,93.520 174.961 C 93.156 175.049,92.933 175.039,93.025 174.940 C 93.171 174.782,92.240 174.373,90.247 173.719 C 89.933 173.616,89.088 173.263,88.369 172.934 C 87.650 172.605,86.988 172.333,86.898 172.329 C 86.808 172.326,85.867 171.884,84.807 171.346 C 81.974 169.910,81.305 169.552,81.179 169.403 C 81.117 169.330,80.660 169.067,80.165 168.819 C 79.669 168.570,79.159 168.288,79.031 168.192 C 78.052 167.454,76.134 166.213,75.973 166.213 C 75.864 166.213,75.741 166.137,75.699 166.043 C 75.658 165.950,75.011 165.422,74.263 164.870 C 72.912 163.875,70.625 161.994,69.697 161.116 C 67.110 158.666,67.006 158.582,67.614 159.414 M60.317 165.734 C 60.317 165.983,60.975 166.539,61.110 166.403 C 61.165 166.348,61.010 166.130,60.764 165.920 C 60.518 165.709,60.317 165.626,60.317 165.734 " stroke="none" fill="#0d2e9c" fill-rule="evenodd"></path><path id="path2" d="M148.457 140.482 C 146.739 140.934,143.662 142.231,143.311 142.653 C 143.248 142.728,142.960 142.914,142.669 143.068 C 142.379 143.221,141.715 143.745,141.195 144.233 C 139.861 145.484,137.963 146.939,137.666 146.939 C 137.528 146.939,137.415 147.038,137.415 147.160 C 137.415 147.281,137.083 147.551,136.678 147.758 C 136.273 147.966,135.890 148.211,135.828 148.303 C 135.765 148.394,134.847 148.897,133.787 149.419 C 132.727 149.941,131.665 150.475,131.427 150.605 C 130.479 151.124,127.707 152.207,126.531 152.517 C 125.137 152.886,124.974 152.935,124.490 153.130 C 124.055 153.305,121.733 153.733,120.408 153.881 C 118.427 154.103,117.343 154.422,118.570 154.422 C 119.192 154.422,118.989 154.823,118.218 155.116 C 117.911 155.232,117.722 155.429,117.799 155.553 C 117.877 155.679,117.791 155.721,117.603 155.649 C 117.404 155.573,117.166 155.712,117.016 155.991 C 116.878 156.251,116.598 156.463,116.394 156.463 C 116.191 156.463,116.084 156.522,116.157 156.595 C 116.408 156.846,115.337 157.823,114.812 157.823 C 114.522 157.823,114.286 157.954,114.286 158.113 C 114.286 158.438,113.494 159.184,113.149 159.184 C 113.026 159.184,112.925 159.297,112.925 159.435 C 112.925 159.573,112.761 159.623,112.560 159.545 C 112.294 159.444,112.232 159.502,112.331 159.761 C 112.427 160.011,112.268 160.185,111.789 160.352 C 111.416 160.482,111.111 160.732,111.111 160.907 C 111.111 161.081,110.969 161.224,110.795 161.224 C 110.622 161.224,110.420 161.378,110.348 161.567 C 110.276 161.755,109.933 162.034,109.587 162.188 C 108.782 162.544,108.326 162.979,108.487 163.238 C 108.555 163.350,108.445 163.427,108.242 163.410 C 108.038 163.393,107.843 163.509,107.808 163.668 C 107.773 163.827,107.796 163.852,107.860 163.723 C 107.923 163.594,108.094 163.564,108.239 163.655 C 108.911 164.075,120.086 164.178,120.926 163.771 C 121.202 163.637,122.602 163.367,124.036 163.172 C 125.470 162.976,126.677 162.713,126.719 162.587 C 126.761 162.461,126.969 162.358,127.182 162.358 C 127.601 162.358,130.058 161.760,130.612 161.523 C 130.799 161.443,131.003 161.360,131.066 161.338 C 131.128 161.317,131.440 161.191,131.759 161.057 C 132.079 160.924,132.767 160.687,133.290 160.530 C 133.813 160.374,134.240 160.160,134.240 160.055 C 134.240 159.950,134.390 159.864,134.573 159.864 C 134.910 159.864,136.526 159.176,136.735 158.944 C 136.797 158.875,137.205 158.674,137.642 158.499 C 138.078 158.323,138.775 157.951,139.189 157.671 C 139.604 157.391,140.140 157.100,140.380 157.024 C 140.620 156.948,140.816 156.806,140.816 156.709 C 140.816 156.611,141.224 156.347,141.723 156.122 C 142.222 155.897,142.630 155.634,142.630 155.536 C 142.630 155.439,142.816 155.300,143.044 155.228 C 143.271 155.156,143.657 154.911,143.900 154.684 C 144.144 154.458,144.646 154.079,145.017 153.844 C 145.710 153.404,145.927 153.231,147.533 151.833 C 148.047 151.386,148.583 151.020,148.724 151.020 C 148.864 151.020,148.980 150.922,148.980 150.802 C 148.980 150.683,149.508 150.427,150.155 150.236 C 154.699 148.886,158.730 151.743,158.730 156.313 C 158.730 157.665,158.187 159.864,157.853 159.864 C 157.769 159.864,157.507 160.221,157.272 160.658 C 157.037 161.094,156.745 161.451,156.622 161.451 C 156.423 161.451,155.076 162.558,153.847 163.732 C 153.593 163.974,153.264 164.172,153.115 164.172 C 152.967 164.172,152.678 164.427,152.473 164.739 C 152.269 165.051,152.006 165.306,151.888 165.306 C 151.708 165.306,150.182 166.359,149.298 167.093 C 149.162 167.206,148.703 167.477,148.278 167.695 C 147.853 167.912,147.455 168.164,147.392 168.254 C 147.330 168.344,146.922 168.599,146.485 168.821 C 146.049 169.043,145.641 169.291,145.578 169.372 C 145.459 169.528,141.292 171.595,138.776 172.747 C 137.965 173.117,136.842 173.554,136.281 173.718 C 135.720 173.881,135.210 174.079,135.147 174.159 C 135.085 174.239,134.320 174.493,133.447 174.723 C 132.574 174.954,131.808 175.202,131.746 175.276 C 131.426 175.654,123.270 177.295,121.618 177.314 C 121.072 177.320,120.633 177.444,120.578 177.608 C 120.442 178.015,106.540 178.010,106.404 177.602 C 106.353 177.449,105.988 177.324,105.593 177.325 C 104.512 177.325,99.450 176.588,99.320 176.411 C 99.257 176.326,98.492 176.128,97.619 175.972 C 96.746 175.815,95.735 175.545,95.373 175.372 C 94.596 175.000,93.960 174.966,93.762 175.287 C 93.684 175.414,93.536 175.466,93.434 175.403 C 93.332 175.340,93.193 175.502,93.125 175.762 C 93.057 176.023,92.899 176.173,92.775 176.096 C 92.650 176.019,92.386 176.187,92.188 176.470 C 91.990 176.753,91.753 176.988,91.662 176.992 C 91.172 177.016,90.401 177.675,90.126 178.306 C 89.954 178.701,89.810 178.897,89.805 178.741 C 89.791 178.293,89.388 178.412,89.229 178.912 C 89.150 179.161,88.984 179.365,88.860 179.365 C 88.737 179.365,88.712 179.238,88.805 179.082 C 88.898 178.926,88.521 179.199,87.968 179.689 C 87.414 180.179,86.842 180.791,86.696 181.049 C 86.551 181.308,86.369 181.486,86.294 181.446 C 85.889 181.228,85.730 181.575,85.986 182.117 C 86.276 182.733,87.301 183.193,90.476 184.136 C 91.287 184.377,92.154 184.672,92.404 184.792 C 92.653 184.912,93.673 185.176,94.671 185.378 C 95.669 185.581,96.689 185.837,96.939 185.948 C 97.451 186.175,101.933 186.848,102.936 186.848 C 103.296 186.848,103.624 186.946,103.666 187.065 C 103.917 187.786,121.950 187.797,123.328 187.077 C 123.531 186.971,125.023 186.713,126.644 186.503 C 128.265 186.293,129.643 186.049,129.705 185.961 C 129.768 185.873,130.788 185.588,131.973 185.327 C 134.831 184.697,140.932 182.722,141.270 182.317 C 141.332 182.242,141.842 182.036,142.404 181.860 C 143.412 181.542,150.343 178.108,150.565 177.815 C 150.629 177.732,151.165 177.427,151.757 177.138 C 152.350 176.849,152.834 176.517,152.834 176.401 C 152.834 176.285,152.954 176.190,153.100 176.190 C 153.421 176.190,156.236 174.352,156.236 174.143 C 156.236 174.062,156.498 173.876,156.819 173.730 C 157.335 173.495,158.434 172.696,159.673 171.655 C 159.895 171.468,160.388 171.060,160.767 170.748 C 163.173 168.770,165.533 166.452,165.533 166.067 C 165.533 165.945,165.743 165.619,166.000 165.344 C 166.257 165.068,166.626 164.462,166.819 163.997 C 167.013 163.532,167.241 163.101,167.327 163.039 C 167.549 162.877,168.254 160.206,168.254 159.527 C 168.254 159.214,168.356 158.957,168.481 158.957 C 168.619 158.957,168.707 157.899,168.707 156.236 C 168.707 154.739,168.629 153.515,168.532 153.515 C 168.436 153.515,168.234 152.863,168.083 152.067 C 167.932 151.271,167.551 150.108,167.237 149.483 C 166.924 148.858,166.667 148.278,166.667 148.195 C 166.667 147.995,165.640 146.608,164.647 145.465 C 160.761 140.993,154.201 138.974,148.457 140.482 " stroke="none" fill="#1e639c" fill-rule="evenodd"></path><path id="path3" d="M144.451 46.365 C 144.162 46.673,143.846 46.876,143.749 46.816 C 143.653 46.757,143.300 47.040,142.966 47.447 C 142.631 47.853,142.427 48.033,142.511 47.846 C 142.595 47.659,142.496 47.710,142.291 47.959 C 142.086 48.209,141.823 48.387,141.707 48.356 C 141.591 48.325,141.275 48.521,141.004 48.792 C 140.644 49.152,140.614 49.246,140.890 49.139 C 141.099 49.059,141.270 49.093,141.270 49.213 C 141.270 49.334,141.114 49.433,140.923 49.433 C 140.638 49.433,139.352 50.312,137.935 51.476 C 137.784 51.599,137.555 51.701,137.425 51.701 C 137.295 51.701,137.188 51.842,137.188 52.014 C 137.188 52.187,136.984 52.381,136.735 52.447 C 136.485 52.512,136.281 52.689,136.281 52.840 C 136.281 53.000,136.465 53.066,136.724 52.998 C 136.967 52.935,137.197 52.975,137.235 53.088 C 137.272 53.200,137.521 53.334,137.787 53.386 C 138.053 53.437,138.461 53.585,138.693 53.714 C 139.719 54.285,143.507 56.009,143.737 56.009 C 143.877 56.009,143.991 56.116,143.991 56.247 C 143.991 56.378,144.374 56.645,144.841 56.840 C 145.309 57.035,145.743 57.272,145.805 57.368 C 145.867 57.464,146.292 57.733,146.748 57.966 C 147.932 58.570,152.834 61.929,152.834 62.135 C 152.834 62.231,153.289 62.522,153.845 62.783 C 154.801 63.233,155.556 63.235,155.556 62.788 C 155.556 62.676,155.712 62.585,155.903 62.585 C 156.094 62.585,156.625 62.177,157.084 61.678 C 157.543 61.179,158.035 60.771,158.179 60.771 C 158.322 60.771,158.631 60.516,158.866 60.204 C 159.100 59.892,159.374 59.637,159.475 59.637 C 159.575 59.637,159.891 59.408,160.175 59.127 C 160.460 58.846,161.016 58.372,161.412 58.073 C 161.978 57.644,162.076 57.463,161.872 57.217 C 161.664 56.966,161.697 56.937,162.043 57.067 C 162.422 57.209,162.435 57.183,162.160 56.845 C 161.989 56.635,161.746 56.463,161.620 56.463 C 161.493 56.463,161.167 56.233,160.895 55.952 C 160.622 55.672,160.100 55.208,159.735 54.922 C 158.772 54.168,155.931 52.080,155.506 51.814 C 155.307 51.689,154.541 51.174,153.803 50.668 C 153.065 50.162,152.138 49.614,151.741 49.450 C 151.345 49.286,151.020 49.074,151.020 48.980 C 151.020 48.885,150.689 48.672,150.283 48.505 C 149.878 48.339,149.201 47.969,148.778 47.684 C 148.355 47.399,147.835 47.166,147.622 47.166 C 147.409 47.166,147.002 46.964,146.717 46.717 C 146.433 46.470,146.123 46.316,146.028 46.374 C 145.934 46.432,145.730 46.328,145.576 46.143 C 145.198 45.686,145.064 45.713,144.451 46.365 M123.018 63.724 C 123.122 64.054,123.075 64.189,122.866 64.160 C 122.270 64.079,121.971 64.176,122.113 64.405 C 122.270 64.659,121.369 65.513,120.931 65.525 C 120.782 65.529,120.510 65.748,120.326 66.011 C 120.142 66.274,119.882 66.422,119.749 66.339 C 119.595 66.244,119.561 66.332,119.656 66.579 C 119.748 66.820,119.716 66.913,119.569 66.822 C 119.361 66.694,118.627 67.156,118.061 67.772 C 117.955 67.887,117.671 68.200,117.429 68.466 C 117.188 68.733,116.876 68.880,116.737 68.794 C 116.583 68.699,116.547 68.740,116.645 68.899 C 116.741 69.055,116.662 69.161,116.448 69.161 C 116.251 69.161,115.977 69.408,115.840 69.710 C 115.691 70.036,115.462 70.210,115.275 70.138 C 114.846 69.974,114.286 70.477,114.286 71.027 C 114.286 71.305,114.172 71.433,113.988 71.363 C 113.825 71.300,113.453 71.429,113.161 71.648 C 112.646 72.037,112.722 72.052,116.067 72.213 C 117.956 72.304,119.501 72.471,119.501 72.584 C 119.501 72.697,119.782 72.789,120.125 72.790 C 121.020 72.791,124.782 73.471,125.054 73.681 C 125.180 73.778,125.788 73.981,126.404 74.131 C 127.021 74.282,127.939 74.592,128.445 74.821 C 128.951 75.050,129.799 75.366,130.329 75.523 C 130.859 75.680,131.293 75.874,131.293 75.954 C 131.293 76.034,131.675 76.235,132.143 76.401 C 132.611 76.567,133.585 77.047,134.309 77.467 C 135.033 77.887,135.779 78.231,135.967 78.231 C 136.154 78.231,136.251 78.323,136.182 78.434 C 136.113 78.546,136.199 78.692,136.374 78.759 C 136.563 78.832,136.738 78.698,136.809 78.426 C 136.874 78.175,137.139 77.916,137.398 77.848 C 137.657 77.780,137.868 77.635,137.868 77.525 C 137.868 77.414,137.945 77.336,138.039 77.351 C 138.463 77.418,138.635 77.300,138.363 77.128 C 138.146 76.990,138.255 76.860,138.760 76.650 C 139.143 76.492,139.456 76.222,139.456 76.050 C 139.456 75.770,139.905 75.620,140.447 75.719 C 140.556 75.739,140.585 75.599,140.512 75.408 C 140.421 75.171,140.555 75.017,140.936 74.921 C 141.243 74.844,141.440 74.695,141.374 74.589 C 141.309 74.483,141.539 74.220,141.886 74.005 C 144.126 72.615,144.174 71.780,142.078 70.652 C 141.820 70.514,141.047 70.036,140.359 69.591 C 139.671 69.145,138.191 68.348,137.071 67.819 C 135.951 67.290,134.866 66.769,134.660 66.661 C 133.764 66.191,129.914 64.844,128.786 64.606 C 128.107 64.463,127.447 64.263,127.320 64.162 C 127.193 64.060,126.377 63.863,125.506 63.723 C 124.635 63.583,123.685 63.419,123.395 63.358 C 122.943 63.264,122.888 63.316,123.018 63.724 M110.317 84.965 C 109.819 85.010,109.206 85.135,108.957 85.244 C 108.707 85.353,107.611 85.619,106.519 85.834 C 105.428 86.049,104.535 86.290,104.535 86.368 C 104.535 86.447,104.101 86.645,103.571 86.809 C 102.427 87.163,99.813 88.442,98.887 89.101 C 98.525 89.358,98.123 89.569,97.992 89.569 C 97.862 89.569,97.673 89.699,97.574 89.858 C 97.474 90.017,97.086 90.341,96.712 90.579 C 95.729 91.203,91.610 95.286,91.610 95.636 C 91.610 95.799,91.453 95.993,91.261 96.066 C 91.070 96.140,90.749 96.519,90.550 96.910 C 90.350 97.300,90.117 97.670,90.031 97.732 C 89.727 97.955,87.982 101.310,87.982 101.672 C 87.982 101.875,87.893 102.041,87.785 102.041 C 87.510 102.041,86.238 106.160,85.964 107.937 C 85.424 111.441,85.455 115.902,86.039 118.707 C 86.091 118.957,86.141 119.296,86.150 119.461 C 86.165 119.709,86.225 119.709,86.502 119.461 C 86.686 119.296,87.111 118.957,87.446 118.707 C 87.781 118.458,88.352 117.973,88.716 117.630 C 89.080 117.287,89.471 117.007,89.587 117.007 C 89.702 117.007,89.796 116.905,89.796 116.780 C 89.796 116.655,89.938 116.553,90.112 116.553 C 90.286 116.553,90.486 116.400,90.558 116.213 C 90.630 116.026,90.845 115.873,91.036 115.873 C 91.227 115.873,91.358 115.759,91.327 115.621 C 91.295 115.482,91.600 115.201,92.003 114.997 C 92.407 114.793,92.789 114.473,92.852 114.286 C 92.916 114.099,93.274 113.741,93.649 113.492 C 94.023 113.243,94.330 112.962,94.330 112.868 C 94.332 112.527,94.754 112.710,94.855 113.095 C 94.912 113.313,94.971 112.914,94.985 112.208 C 95.047 109.186,95.825 106.632,97.697 103.300 C 98.567 101.753,101.968 98.241,103.216 97.601 C 103.630 97.389,104.019 97.153,104.082 97.077 C 104.369 96.726,107.271 95.485,108.390 95.235 C 109.076 95.081,109.882 94.841,110.182 94.700 C 111.094 94.272,116.734 94.388,117.668 94.854 C 118.093 95.066,118.481 95.200,118.531 95.150 C 118.580 95.101,118.308 94.923,117.927 94.754 C 117.257 94.457,116.967 93.878,117.490 93.878 C 117.630 93.878,118.141 93.520,118.624 93.084 C 119.107 92.647,119.603 92.290,119.727 92.290 C 119.850 92.290,120.243 91.984,120.601 91.610 C 120.958 91.236,121.352 90.930,121.475 90.930 C 121.598 90.930,122.135 90.423,122.668 89.804 C 123.221 89.162,123.966 88.571,124.404 88.426 C 124.825 88.287,125.170 88.079,125.170 87.964 C 125.170 87.849,125.329 87.755,125.524 87.755 C 125.718 87.755,125.813 87.651,125.735 87.525 C 125.656 87.398,125.497 87.353,125.381 87.425 C 125.265 87.496,125.170 87.463,125.170 87.351 C 125.170 87.239,124.736 87.018,124.206 86.861 C 123.676 86.703,123.130 86.483,122.992 86.371 C 122.739 86.165,119.422 85.377,117.347 85.030 C 116.232 84.844,112.097 84.805,110.317 84.965 M72.769 104.875 C 72.219 105.436,71.589 105.954,71.369 106.025 C 71.149 106.097,71.026 106.249,71.097 106.363 C 71.168 106.477,71.061 106.508,70.860 106.431 C 70.610 106.335,70.455 106.443,70.368 106.773 C 70.299 107.039,70.095 107.256,69.915 107.256 C 69.735 107.256,69.651 107.358,69.728 107.483 C 69.805 107.608,69.658 107.710,69.401 107.710 C 69.144 107.710,68.934 107.851,68.934 108.023 C 68.934 108.196,68.720 108.393,68.458 108.462 C 68.155 108.541,68.044 108.687,68.153 108.863 C 68.254 109.027,68.230 109.082,68.094 108.998 C 67.967 108.920,67.569 109.156,67.208 109.524 C 66.848 109.891,66.429 110.194,66.278 110.198 C 66.126 110.201,65.897 110.401,65.768 110.642 C 65.639 110.883,65.340 111.142,65.104 111.217 C 64.868 111.292,64.622 111.554,64.558 111.800 C 64.485 112.077,64.315 112.199,64.110 112.120 C 63.216 111.777,63.343 119.891,64.284 123.243 C 64.459 123.866,64.772 125.193,64.979 126.190 C 65.186 127.188,65.432 128.107,65.525 128.231 C 65.618 128.356,65.818 128.968,65.968 129.592 C 66.119 130.215,66.372 130.930,66.531 131.179 C 66.689 131.429,66.963 132.130,67.139 132.738 C 67.316 133.346,67.588 133.893,67.744 133.953 C 67.900 134.013,68.027 134.221,68.027 134.416 C 68.027 134.610,68.104 134.693,68.197 134.599 C 68.291 134.506,68.367 134.322,68.367 134.192 C 68.367 134.061,68.707 133.772,69.122 133.549 C 69.538 133.326,70.048 132.998,70.256 132.820 C 70.464 132.641,70.828 132.426,71.064 132.342 C 71.300 132.258,71.433 132.128,71.359 132.054 C 71.165 131.860,74.378 129.226,74.624 129.378 C 74.737 129.448,74.830 129.352,74.830 129.165 C 74.830 128.977,75.041 128.676,75.300 128.495 C 75.801 128.144,75.695 127.278,74.933 125.510 C 74.647 124.844,73.902 121.297,73.435 118.367 C 73.019 115.765,73.390 105.758,73.940 104.731 C 74.096 104.438,74.089 104.308,73.917 104.308 C 73.781 104.308,73.732 104.206,73.810 104.082 C 74.100 103.611,73.737 103.888,72.769 104.875 M219.902 114.450 C 220.310 114.501,220.922 114.499,221.263 114.448 C 221.603 114.396,221.270 114.355,220.522 114.356 C 219.773 114.357,219.494 114.400,219.902 114.450 M225.344 114.450 C 225.752 114.501,226.364 114.499,226.705 114.448 C 227.045 114.396,226.712 114.355,225.964 114.356 C 225.215 114.357,224.937 114.400,225.344 114.450 M49.206 123.836 C 49.206 124.017,48.900 124.346,48.526 124.567 C 48.152 124.788,47.846 125.116,47.846 125.296 C 47.846 125.476,47.745 125.624,47.622 125.624 C 47.394 125.624,46.983 125.928,45.717 127.033 C 44.047 128.490,43.634 128.798,43.343 128.798 C 43.163 128.798,43.089 128.939,43.166 129.138 C 43.246 129.348,43.165 129.478,42.954 129.478 C 42.766 129.478,42.386 129.689,42.111 129.947 C 41.807 130.230,41.409 130.377,41.100 130.318 C 40.600 130.224,40.367 130.500,40.819 130.651 C 41.052 130.729,41.163 131.135,41.391 132.757 C 41.528 133.730,42.694 137.521,43.206 138.662 C 43.374 139.036,43.662 139.802,43.846 140.363 C 44.029 140.924,44.340 141.689,44.537 142.063 C 44.734 142.438,44.896 142.832,44.897 142.940 C 44.898 143.180,47.642 148.664,48.543 150.227 C 48.902 150.850,49.197 151.259,49.198 151.134 C 49.199 151.009,49.111 150.767,49.002 150.596 C 48.777 150.241,49.353 149.433,49.831 149.433 C 49.994 149.433,50.186 149.281,50.258 149.094 C 50.329 148.908,50.468 148.805,50.567 148.866 C 50.665 148.927,50.810 148.810,50.889 148.606 C 50.967 148.401,51.083 148.287,51.147 148.350 C 51.322 148.525,52.607 147.256,52.611 146.904 C 52.614 146.650,52.647 146.650,52.806 146.901 C 52.954 147.134,53.111 147.061,53.483 146.587 C 53.750 146.248,53.969 146.061,53.970 146.171 C 53.971 146.282,54.157 146.090,54.384 145.746 C 54.610 145.402,54.865 145.190,54.949 145.274 C 55.033 145.358,55.102 145.308,55.102 145.163 C 55.102 145.017,55.244 144.898,55.418 144.898 C 55.592 144.898,55.795 144.738,55.870 144.543 C 55.945 144.348,56.109 144.252,56.234 144.330 C 56.574 144.540,56.511 144.086,56.159 143.795 C 55.992 143.656,55.733 143.133,55.583 142.633 C 55.433 142.133,55.213 141.723,55.093 141.723 C 54.973 141.723,54.875 141.569,54.875 141.380 C 54.875 141.191,54.780 140.860,54.663 140.643 C 54.228 139.839,53.336 137.726,53.060 136.848 C 52.904 136.349,52.698 135.839,52.603 135.714 C 52.507 135.590,52.248 134.824,52.025 134.014 C 51.802 133.203,51.556 132.489,51.477 132.426 C 51.399 132.364,51.145 131.446,50.912 130.385 C 50.680 129.325,50.415 128.356,50.322 128.231 C 50.161 128.016,49.735 125.934,49.547 124.451 C 49.455 123.724,49.206 123.275,49.206 123.836 " stroke="none" fill="#0404c3" fill-rule="evenodd"></path><path id="path4" d="M161.872 57.217 C 162.076 57.463,161.978 57.644,161.412 58.073 C 161.016 58.372,160.460 58.846,160.175 59.127 C 159.891 59.408,159.575 59.637,159.475 59.637 C 159.374 59.637,159.100 59.892,158.866 60.204 C 158.631 60.516,158.322 60.771,158.179 60.771 C 158.035 60.771,157.543 61.179,157.084 61.678 C 156.625 62.177,156.094 62.585,155.903 62.585 C 155.712 62.585,155.556 62.676,155.556 62.788 C 155.556 63.146,154.857 63.271,154.349 63.005 C 153.859 62.748,153.858 62.749,154.287 63.232 C 154.524 63.500,154.809 63.719,154.920 63.719 C 155.031 63.719,156.596 65.224,158.398 67.063 C 160.201 68.903,161.678 70.306,161.680 70.181 C 161.683 70.057,161.765 70.081,161.863 70.235 C 162.421 71.114,167.120 70.969,167.120 70.074 C 167.120 69.946,167.230 69.841,167.363 69.841 C 167.677 69.841,168.254 69.264,168.254 68.950 C 168.254 68.817,168.346 68.707,168.459 68.707 C 169.501 68.707,169.366 64.270,168.284 62.996 C 168.039 62.708,167.473 62.028,167.026 61.486 C 166.579 60.945,166.213 60.582,166.213 60.680 C 166.213 60.779,165.958 60.513,165.646 60.091 C 165.334 59.668,165.079 59.412,165.079 59.521 C 165.079 59.630,164.773 59.376,164.399 58.957 C 164.025 58.538,163.719 58.280,163.719 58.384 C 163.719 58.489,163.476 58.291,163.179 57.946 C 162.788 57.491,162.606 57.403,162.517 57.627 C 162.427 57.854,162.389 57.837,162.376 57.564 C 162.366 57.359,162.191 57.127,161.986 57.049 C 161.691 56.935,161.667 56.970,161.872 57.217 M143.678 71.947 C 143.847 72.433,143.308 73.087,142.112 73.847 C 141.640 74.147,141.307 74.480,141.373 74.587 C 141.439 74.694,141.243 74.844,140.936 74.921 C 140.555 75.017,140.421 75.171,140.512 75.408 C 140.585 75.599,140.556 75.739,140.447 75.719 C 139.905 75.620,139.456 75.770,139.456 76.050 C 139.456 76.222,139.143 76.492,138.760 76.650 C 138.318 76.834,138.162 76.998,138.331 77.103 C 138.523 77.222,138.527 77.311,138.346 77.423 C 138.208 77.508,138.094 77.495,138.092 77.394 C 138.090 77.293,138.013 77.313,137.922 77.438 C 137.830 77.562,137.551 77.777,137.302 77.915 C 136.447 78.389,136.681 78.818,138.595 80.276 C 139.630 81.064,140.610 81.896,140.772 82.125 C 140.935 82.353,141.165 82.540,141.283 82.540 C 142.080 82.540,145.713 87.055,145.901 88.280 C 146.111 89.649,146.192 91.383,146.045 91.383 C 145.965 91.383,145.781 91.817,145.636 92.347 C 145.492 92.877,145.119 93.580,144.809 93.910 C 144.499 94.239,144.284 94.549,144.332 94.597 C 144.381 94.645,143.941 94.934,143.355 95.239 C 142.770 95.544,142.229 95.880,142.153 95.986 C 141.911 96.326,140.421 96.549,139.070 96.447 C 137.328 96.316,136.187 95.626,133.787 93.252 C 131.641 91.129,131.464 90.974,130.505 90.370 C 130.134 90.137,129.630 89.759,129.385 89.531 C 129.140 89.302,128.806 89.116,128.642 89.116 C 128.478 89.116,128.345 89.038,128.345 88.943 C 128.345 88.849,128.130 88.637,127.867 88.473 C 127.472 88.226,127.420 88.227,127.566 88.475 C 127.663 88.640,127.538 88.597,127.289 88.379 C 127.039 88.160,126.658 87.982,126.443 87.982 C 126.227 87.982,126.104 87.895,126.170 87.788 C 126.236 87.681,126.038 87.642,125.730 87.701 C 125.422 87.760,125.170 87.890,125.170 87.991 C 125.170 88.091,124.825 88.287,124.404 88.426 C 123.966 88.571,123.221 89.162,122.668 89.804 C 122.135 90.423,121.598 90.930,121.475 90.930 C 121.352 90.930,120.958 91.236,120.601 91.610 C 120.243 91.984,119.850 92.290,119.727 92.290 C 119.603 92.290,119.107 92.647,118.624 93.084 C 118.141 93.520,117.630 93.878,117.490 93.878 C 117.349 93.878,117.234 94.006,117.234 94.162 C 117.234 94.412,119.166 95.465,119.624 95.465 C 119.990 95.465,122.780 96.965,123.313 97.449 C 123.623 97.730,123.962 97.959,124.068 97.959 C 124.389 97.959,126.093 99.510,127.939 101.482 C 129.252 102.884,129.733 103.230,131.856 104.303 C 132.602 104.680,133.348 104.989,133.513 104.989 C 133.685 104.989,133.743 105.102,133.650 105.254 C 133.538 105.434,133.611 105.471,133.875 105.370 C 134.089 105.288,134.488 105.366,134.762 105.543 C 135.208 105.831,135.321 105.815,135.828 105.389 C 136.244 105.040,136.281 104.955,135.966 105.070 C 135.602 105.202,135.580 105.173,135.823 104.880 C 135.981 104.691,136.225 104.535,136.366 104.535 C 136.853 104.534,137.918 103.439,137.733 103.130 C 137.598 102.906,137.648 102.910,137.938 103.146 C 138.270 103.414,138.322 103.405,138.322 103.079 C 138.322 102.847,138.473 102.727,138.713 102.768 C 138.971 102.812,139.107 102.684,139.110 102.396 C 139.114 102.093,139.345 101.898,139.861 101.764 C 140.280 101.655,140.543 101.468,140.462 101.337 C 140.306 101.086,141.049 100.430,141.307 100.590 C 141.393 100.643,141.997 100.175,142.649 99.550 C 143.301 98.924,143.927 98.413,144.040 98.413 C 144.152 98.413,144.181 98.311,144.104 98.186 C 144.027 98.061,144.076 97.959,144.214 97.959 C 144.351 97.959,144.682 97.755,144.950 97.506 C 145.218 97.256,145.573 97.052,145.740 97.052 C 145.907 97.052,146.140 96.797,146.259 96.485 C 146.377 96.173,146.640 95.918,146.844 95.918 C 147.275 95.918,148.666 94.801,148.583 94.521 C 148.552 94.417,148.705 94.331,148.924 94.331 C 149.150 94.331,149.455 94.031,149.630 93.636 C 149.812 93.224,150.059 92.988,150.236 93.056 C 150.590 93.192,151.090 92.666,150.848 92.411 C 150.756 92.314,150.935 92.310,151.247 92.404 C 151.559 92.497,151.746 92.501,151.663 92.413 C 151.497 92.237,152.141 91.383,152.439 91.383 C 152.540 91.383,152.970 91.036,153.394 90.612 C 153.818 90.188,154.205 89.882,154.255 89.931 C 154.304 89.980,154.584 89.766,154.876 89.455 C 155.169 89.144,155.526 88.889,155.671 88.889 C 155.820 88.889,155.933 88.546,155.933 88.095 C 155.933 87.659,155.863 87.302,155.776 87.302 C 155.689 87.302,155.669 87.036,155.731 86.711 C 155.794 86.386,155.752 86.054,155.639 85.974 C 155.455 85.842,155.306 85.406,154.659 83.107 C 154.554 82.732,154.456 82.528,154.440 82.653 C 154.424 82.778,154.222 82.461,153.989 81.949 C 153.756 81.437,153.376 80.783,153.144 80.496 C 151.020 77.874,146.925 73.934,146.315 73.927 C 146.159 73.925,146.032 73.770,146.032 73.583 C 146.032 73.396,145.896 73.243,145.731 73.243 C 145.566 73.243,145.191 72.988,144.899 72.677 C 144.606 72.365,144.318 72.160,144.258 72.220 C 144.198 72.280,144.011 72.152,143.843 71.935 C 143.554 71.564,143.544 71.565,143.678 71.947 M200.907 73.694 C 200.720 73.809,199.980 74.064,199.263 74.260 C 198.546 74.456,197.959 74.715,197.959 74.836 C 197.959 74.957,197.842 75.057,197.699 75.057 C 197.322 75.057,195.465 76.626,195.465 76.945 C 195.465 77.093,195.261 77.343,195.011 77.498 C 194.762 77.654,194.558 77.927,194.558 78.104 C 194.558 78.281,194.423 78.560,194.259 78.725 C 193.096 79.892,192.891 86.283,193.982 87.374 C 194.141 87.533,194.343 87.890,194.431 88.167 C 194.519 88.444,194.890 88.997,195.255 89.397 C 195.620 89.797,195.918 90.203,195.918 90.300 C 195.918 90.397,196.020 90.476,196.143 90.476 C 196.267 90.476,196.836 90.833,197.408 91.270 C 197.980 91.706,198.635 92.063,198.865 92.063 C 199.094 92.063,199.316 92.164,199.358 92.288 C 199.704 93.315,205.565 93.126,207.937 92.010 C 210.891 90.621,210.938 90.368,208.654 88.123 L 207.298 86.791 206.018 87.523 C 203.757 88.817,199.320 87.980,199.320 86.259 C 199.320 86.102,199.141 85.795,198.923 85.577 C 198.453 85.107,198.332 81.288,198.778 81.001 C 198.916 80.912,199.199 80.508,199.406 80.104 C 199.736 79.461,201.225 78.422,201.927 78.345 C 202.052 78.332,202.426 78.241,202.758 78.143 C 203.483 77.930,205.894 78.737,206.486 79.391 C 207.025 79.986,207.019 79.989,208.699 78.350 C 210.449 76.643,210.600 76.065,209.467 75.406 C 209.062 75.170,208.679 74.905,208.617 74.817 C 208.458 74.593,206.424 73.923,205.901 73.923 C 205.663 73.923,205.414 73.834,205.347 73.726 C 205.182 73.459,201.333 73.431,200.907 73.694 M239.177 76.662 C 238.712 76.772,238.138 77.055,237.901 77.291 C 237.665 77.528,237.379 77.759,237.265 77.806 C 236.939 77.940,236.054 80.262,236.054 80.983 C 236.054 81.592,235.996 81.633,235.131 81.633 C 233.846 81.633,233.525 82.031,233.587 83.556 L 233.638 84.807 234.846 84.807 L 236.054 84.807 236.054 88.776 L 236.054 92.744 237.755 92.744 L 239.456 92.744 239.456 88.776 L 239.456 84.807 241.043 84.807 L 242.630 84.807 242.630 83.544 C 242.630 81.916,242.345 81.633,240.705 81.633 L 239.427 81.633 239.498 80.919 C 239.541 80.491,239.751 80.104,240.023 79.955 C 240.272 79.818,240.543 79.612,240.626 79.498 C 240.708 79.385,240.945 79.461,241.152 79.668 C 241.715 80.232,242.083 80.136,243.084 79.165 C 244.085 78.193,244.226 77.656,243.537 77.438 C 243.288 77.358,243.084 77.203,243.084 77.093 C 243.084 76.554,240.733 76.295,239.177 76.662 M224.090 84.637 L 224.150 92.630 225.794 92.697 L 227.438 92.764 227.438 84.704 L 227.438 76.644 225.734 76.644 L 224.030 76.644 224.090 84.637 M229.971 77.396 C 228.809 78.633,229.441 80.502,231.017 80.492 C 232.334 80.483,232.861 80.108,233.032 79.060 C 233.302 77.395,231.098 76.196,229.971 77.396 M277.324 77.098 C 277.324 77.222,277.175 77.324,276.992 77.324 C 276.219 77.324,275.879 79.475,276.547 80.143 C 278.231 81.826,280.831 79.284,279.255 77.494 C 278.710 76.875,277.324 76.590,277.324 77.098 M214.512 81.859 C 214.512 81.984,214.368 82.086,214.191 82.086 C 211.946 82.086,210.184 86.963,211.402 89.806 C 212.116 91.475,214.293 92.972,216.001 92.969 C 217.102 92.968,218.594 92.571,218.594 92.280 C 218.594 92.161,218.696 92.063,218.821 92.063 C 218.946 92.063,219.048 92.221,219.048 92.414 C 219.048 92.703,219.332 92.752,220.692 92.697 L 222.336 92.630 222.397 87.443 C 222.467 81.494,222.519 81.652,220.476 81.640 C 219.621 81.635,219.241 81.733,219.092 81.999 C 218.877 82.383,217.914 82.257,217.914 81.844 C 217.914 81.728,217.149 81.633,216.213 81.633 C 215.231 81.633,214.512 81.728,214.512 81.859 M229.486 87.232 L 229.465 92.764 231.116 92.697 L 232.766 92.630 232.831 87.642 C 232.913 81.207,233.028 81.598,231.073 81.655 L 229.508 81.701 229.486 87.232 M245.651 82.175 C 244.536 82.742,243.537 83.629,243.537 84.053 C 243.537 84.218,243.440 84.354,243.321 84.354 C 242.994 84.354,242.633 85.900,242.633 87.302 C 242.633 88.633,242.989 90.249,243.283 90.249 C 243.381 90.249,243.598 90.505,243.765 90.818 C 244.655 92.481,249.311 93.650,250.645 92.546 C 250.851 92.375,251.020 92.302,251.020 92.385 C 251.020 92.584,251.577 92.140,252.642 91.090 C 253.122 90.617,253.515 90.090,253.515 89.919 C 253.515 89.747,253.631 89.568,253.773 89.521 C 254.319 89.339,254.297 86.123,253.742 85.021 C 253.040 83.628,251.740 82.350,250.850 82.178 C 250.445 82.100,250.113 81.945,250.113 81.834 C 250.113 81.409,246.638 81.674,245.651 82.175 M255.466 81.991 C 255.391 82.189,255.329 84.689,255.329 87.547 L 255.329 92.744 257.010 92.744 L 258.690 92.744 258.767 89.097 C 258.858 84.759,258.901 84.679,261.043 84.913 C 262.277 85.048,262.353 85.026,262.738 84.420 C 262.960 84.072,263.271 83.705,263.430 83.606 C 263.916 83.301,263.759 82.548,263.152 82.272 C 262.840 82.130,262.585 81.928,262.585 81.823 C 262.585 81.480,259.881 81.611,259.316 81.981 C 258.838 82.294,258.771 82.294,258.651 81.981 C 258.456 81.472,255.662 81.481,255.466 81.991 M264.314 81.980 C 264.236 82.184,264.172 84.689,264.172 87.547 L 264.172 92.744 265.873 92.744 L 267.574 92.744 267.574 89.269 C 267.574 85.311,267.782 84.804,269.402 84.811 C 270.979 84.818,271.202 85.392,271.202 89.453 L 271.202 92.744 272.803 92.744 L 274.403 92.744 274.333 88.379 C 274.265 84.157,274.245 83.989,273.710 83.276 C 272.608 81.807,269.714 81.111,268.369 81.992 C 267.848 82.334,267.216 82.255,267.449 81.878 C 267.509 81.781,266.860 81.681,266.007 81.656 C 264.755 81.619,264.429 81.682,264.314 81.980 M276.568 81.784 C 276.485 81.867,276.417 84.367,276.417 87.339 L 276.417 92.744 278.095 92.744 L 279.773 92.744 279.806 87.504 C 279.837 82.706,279.805 82.239,279.432 81.956 C 279.017 81.641,276.842 81.510,276.568 81.784 M284.354 81.835 C 284.354 81.946,284.101 82.101,283.791 82.178 C 281.767 82.686,280.534 85.896,281.176 88.987 C 281.738 91.693,284.975 93.658,287.462 92.804 C 287.810 92.684,288.991 92.635,290.086 92.694 L 292.077 92.801 292.056 87.255 L 292.034 81.709 290.811 81.660 C 290.017 81.627,289.400 81.733,289.053 81.960 C 288.583 82.269,288.466 82.271,288.080 81.979 C 287.594 81.611,284.354 81.486,284.354 81.835 M218.350 85.505 C 219.921 87.076,218.876 89.645,216.666 89.645 C 215.216 89.645,214.515 88.858,214.514 87.227 C 214.511 84.992,216.806 83.961,218.350 85.505 M250.091 85.692 C 250.933 86.553,251.007 87.469,250.324 88.574 C 249.413 90.049,246.970 90.021,246.290 88.527 C 245.052 85.811,248.034 83.587,250.091 85.692 M288.416 85.690 C 290.097 87.813,288.129 90.527,285.658 89.494 C 284.079 88.834,284.023 85.657,285.580 85.028 C 286.761 84.550,287.684 84.766,288.416 85.690 M116.893 94.785 C 116.971 94.909,117.257 95.004,117.530 94.995 C 118.009 94.980,118.011 94.972,117.574 94.785 C 116.950 94.516,116.728 94.516,116.893 94.785 M200.907 106.349 C 200.907 106.474,200.721 106.576,200.494 106.576 C 199.899 106.576,197.959 107.266,197.959 107.478 C 197.959 107.576,197.781 107.717,197.562 107.790 C 196.759 108.060,195.493 109.138,195.472 109.570 C 195.468 109.658,195.210 109.985,194.898 110.297 C 194.586 110.609,194.331 111.021,194.331 111.214 C 194.331 111.407,194.233 111.565,194.113 111.565 C 193.122 111.565,193.006 119.051,193.982 120.027 C 194.141 120.186,194.343 120.543,194.431 120.820 C 194.519 121.097,194.890 121.651,195.255 122.050 C 195.620 122.450,195.918 122.856,195.918 122.953 C 195.918 123.050,196.027 123.129,196.159 123.129 C 196.291 123.129,196.867 123.486,197.439 123.923 C 198.010 124.359,198.645 124.717,198.848 124.717 C 199.052 124.717,199.471 124.895,199.779 125.113 C 200.433 125.576,206.226 125.714,206.527 125.274 C 206.616 125.144,207.136 124.894,207.683 124.718 C 208.848 124.342,210.431 123.255,210.431 122.829 C 210.431 122.507,207.536 119.501,207.226 119.501 C 207.121 119.501,206.521 119.818,205.892 120.205 C 204.417 121.113,201.647 121.131,200.689 120.238 C 200.388 119.957,200.061 119.728,199.963 119.728 C 199.865 119.728,199.615 119.396,199.407 118.991 C 199.200 118.586,198.916 118.181,198.778 118.092 C 198.625 117.994,198.526 117.150,198.526 115.938 C 198.526 113.657,199.139 112.433,200.680 111.635 C 201.117 111.409,201.543 111.129,201.627 111.012 C 201.857 110.693,204.828 110.743,204.937 111.069 C 204.986 111.217,205.180 111.338,205.369 111.338 C 205.804 111.338,206.834 112.138,206.644 112.328 C 206.565 112.407,206.645 112.472,206.822 112.471 C 206.998 112.471,207.832 111.792,208.673 110.962 C 210.451 109.210,210.613 108.611,209.467 108.024 C 209.062 107.816,208.679 107.571,208.617 107.478 C 208.461 107.246,206.434 106.576,205.888 106.576 C 205.643 106.576,205.442 106.474,205.442 106.349 C 205.442 106.213,204.535 106.122,203.175 106.122 C 201.814 106.122,200.907 106.213,200.907 106.349 M94.330 112.868 C 94.330 112.962,94.023 113.243,93.649 113.492 C 93.274 113.741,92.916 114.099,92.852 114.286 C 92.789 114.473,92.407 114.793,92.003 114.997 C 91.600 115.201,91.295 115.482,91.327 115.621 C 91.358 115.759,91.227 115.873,91.036 115.873 C 90.845 115.873,90.630 116.026,90.558 116.213 C 90.486 116.400,90.286 116.553,90.112 116.553 C 89.938 116.553,89.796 116.655,89.796 116.780 C 89.796 116.905,89.702 117.007,89.587 117.007 C 89.471 117.007,89.080 117.287,88.716 117.630 C 88.352 117.973,87.781 118.458,87.446 118.707 C 86.493 119.417,86.168 119.742,86.168 119.984 C 86.168 120.107,86.260 120.151,86.373 120.081 C 86.486 120.011,86.525 120.159,86.460 120.409 C 86.395 120.659,86.443 120.991,86.568 121.146 C 86.693 121.302,86.869 121.786,86.958 122.222 C 87.150 123.159,89.282 127.601,89.787 128.116 C 89.979 128.312,90.287 128.775,90.472 129.145 C 90.868 129.937,91.017 130.109,93.559 132.710 C 94.625 133.801,95.585 134.694,95.691 134.694 C 95.798 134.694,96.076 134.936,96.309 135.233 C 96.762 135.808,98.186 136.273,98.186 135.846 C 98.186 135.711,98.378 135.601,98.613 135.601 C 98.854 135.601,99.094 135.396,99.163 135.131 C 99.231 134.872,99.498 134.605,99.756 134.537 C 100.015 134.470,100.227 134.318,100.227 134.201 C 100.227 134.083,100.323 134.046,100.440 134.119 C 100.557 134.191,100.940 133.891,101.290 133.452 C 101.641 133.012,102.036 132.653,102.169 132.653 C 102.302 132.653,102.927 132.164,103.557 131.566 C 104.187 130.968,104.818 130.517,104.959 130.565 C 105.100 130.612,105.223 130.463,105.233 130.234 C 105.244 129.994,105.300 129.938,105.366 130.103 C 105.512 130.466,105.896 130.241,105.896 129.792 C 105.896 129.605,105.794 129.515,105.669 129.592 C 105.544 129.669,105.442 129.607,105.442 129.454 C 105.442 129.301,105.378 129.241,105.299 129.319 C 105.220 129.398,104.940 129.342,104.675 129.195 C 104.411 129.048,104.115 128.924,104.017 128.920 C 103.919 128.915,103.757 128.780,103.658 128.620 C 103.559 128.460,103.110 128.132,102.661 127.891 C 101.760 127.408,98.639 124.305,98.639 123.891 C 98.639 123.748,98.499 123.577,98.328 123.512 C 98.156 123.446,97.588 122.491,97.064 121.390 C 96.541 120.289,96.020 119.212,95.905 118.998 C 95.619 118.463,95.232 116.672,95.106 115.306 C 94.935 113.441,94.776 112.698,94.548 112.698 C 94.428 112.698,94.331 112.775,94.330 112.868 M214.626 114.512 C 214.549 114.637,214.323 114.739,214.124 114.739 C 210.527 114.739,209.980 123.338,213.487 124.754 C 213.864 124.906,214.245 125.139,214.335 125.271 C 214.622 125.696,217.775 125.568,218.230 125.113 C 218.720 124.623,219.048 124.604,219.048 125.067 C 219.048 125.356,219.332 125.405,220.692 125.350 L 222.336 125.283 222.397 120.113 C 222.443 116.164,222.390 114.878,222.170 114.671 C 221.772 114.296,219.047 114.306,219.047 114.683 C 219.048 115.064,218.553 115.041,218.014 114.633 C 217.507 114.250,214.847 114.155,214.626 114.512 M224.135 114.841 C 224.073 115.097,224.050 117.551,224.086 120.295 L 224.150 125.283 225.774 125.350 L 227.397 125.416 227.474 121.789 C 227.565 117.521,227.545 117.559,229.602 117.609 C 231.714 117.660,233.394 115.556,231.801 114.856 C 231.522 114.732,231.293 114.554,231.293 114.459 C 231.293 114.364,230.629 114.286,229.819 114.286 C 229.008 114.286,228.345 114.376,228.345 114.486 C 228.345 114.743,227.481 114.975,227.392 114.742 C 227.212 114.276,224.252 114.366,224.135 114.841 M235.903 114.528 C 235.769 114.662,235.483 114.797,235.267 114.828 C 234.742 114.905,233.107 116.313,233.107 116.687 C 233.107 116.851,232.932 117.082,232.719 117.201 C 232.148 117.521,231.979 121.742,232.515 122.278 C 232.716 122.479,232.880 122.736,232.880 122.849 C 232.880 123.178,234.488 124.693,235.010 124.856 C 235.273 124.937,235.558 125.114,235.644 125.249 C 235.936 125.704,239.491 125.565,240.491 125.059 C 242.538 124.024,242.708 123.645,241.618 122.555 C 240.724 121.661,240.654 121.644,239.765 122.107 C 238.648 122.690,236.912 122.555,236.144 121.825 L 235.488 121.202 239.229 121.088 L 242.971 120.975 243.041 119.861 C 243.177 117.717,241.788 115.219,240.245 114.831 C 239.936 114.754,239.683 114.599,239.683 114.488 C 239.683 114.199,236.194 114.237,235.903 114.528 M239.027 117.517 C 240.201 118.502,240.096 118.594,237.790 118.594 C 235.931 118.594,235.634 118.544,235.748 118.247 C 236.074 117.399,238.296 116.904,239.027 117.517 M218.385 118.123 C 218.921 118.660,219.045 118.973,219.032 119.767 C 219.018 120.613,218.655 122.050,218.610 121.435 C 218.601 121.314,218.445 121.428,218.262 121.688 C 217.580 122.662,215.344 122.445,214.757 121.349 C 213.383 118.781,216.379 116.117,218.385 118.123 M75.340 128.467 C 75.059 128.663,74.830 128.977,74.830 129.165 C 74.830 129.352,74.737 129.448,74.624 129.378 C 74.378 129.226,71.165 131.860,71.359 132.054 C 71.433 132.128,71.300 132.258,71.064 132.342 C 70.828 132.426,70.464 132.641,70.256 132.820 C 70.048 132.998,69.538 133.326,69.122 133.549 C 68.707 133.772,68.367 134.061,68.367 134.192 C 68.367 134.322,68.302 134.495,68.222 134.575 C 68.020 134.777,68.264 135.621,68.485 135.485 C 68.584 135.424,68.608 135.594,68.537 135.863 C 68.450 136.196,68.492 136.301,68.669 136.191 C 68.838 136.087,68.882 136.155,68.794 136.383 C 68.720 136.576,68.763 136.735,68.891 136.735 C 69.019 136.735,69.299 137.194,69.513 137.755 C 69.728 138.316,69.991 138.776,70.099 138.776 C 70.207 138.776,70.295 138.888,70.295 139.026 C 70.295 139.164,70.601 139.730,70.975 140.285 C 71.349 140.839,71.656 141.364,71.658 141.451 C 71.659 141.539,72.012 142.069,72.443 142.630 C 72.874 143.192,73.409 143.895,73.631 144.193 C 73.854 144.492,74.266 144.981,74.546 145.281 C 74.827 145.580,75.057 145.892,75.057 145.973 C 75.057 146.054,75.372 146.432,75.757 146.813 C 76.143 147.194,77.093 148.171,77.869 148.985 C 79.352 150.538,80.890 151.101,80.808 150.059 C 80.791 149.842,80.859 149.715,80.959 149.777 C 81.059 149.839,81.175 149.812,81.216 149.718 C 81.258 149.624,81.672 149.353,82.136 149.117 C 82.600 148.881,82.935 148.615,82.879 148.525 C 82.824 148.436,83.280 148.020,83.892 147.602 C 84.505 147.184,85.060 146.638,85.125 146.390 C 85.190 146.141,85.306 146.002,85.384 146.079 C 85.462 146.157,85.709 146.051,85.933 145.843 C 86.157 145.635,86.582 145.280,86.878 145.054 L 87.415 144.643 86.903 144.223 C 86.552 143.934,86.481 143.767,86.677 143.688 C 86.881 143.606,86.869 143.568,86.636 143.555 C 86.247 143.534,82.875 140.049,82.421 139.200 C 82.246 138.872,81.946 138.544,81.754 138.470 C 81.563 138.396,81.406 138.232,81.406 138.104 C 81.406 137.977,81.049 137.405,80.612 136.833 C 80.176 136.261,79.819 135.642,79.819 135.457 C 79.819 135.272,79.717 135.184,79.592 135.261 C 79.467 135.338,79.365 135.307,79.365 135.192 C 79.365 135.078,79.134 134.638,78.852 134.215 C 78.569 133.793,78.141 132.988,77.900 132.426 C 77.659 131.865,77.269 131.122,77.032 130.774 C 76.637 130.195,76.481 129.763,76.435 129.125 C 76.383 128.412,75.864 128.100,75.340 128.467 M200.907 138.991 C 200.720 139.095,199.980 139.349,199.263 139.556 C 198.546 139.763,197.959 140.017,197.959 140.121 C 197.959 140.225,197.781 140.370,197.562 140.443 C 197.002 140.631,196.311 141.098,196.001 141.497 C 195.856 141.684,195.469 142.143,195.142 142.517 C 194.814 142.891,194.487 143.427,194.414 143.707 C 194.341 143.988,194.207 144.218,194.116 144.218 C 193.830 144.218,193.389 146.034,193.260 147.736 C 193.135 149.391,193.699 152.834,194.095 152.834 C 194.198 152.834,194.347 153.092,194.426 153.407 C 194.596 154.086,196.922 156.463,197.416 156.463 C 197.605 156.463,197.703 156.553,197.635 156.663 C 197.516 156.857,198.143 157.168,199.320 157.498 C 199.632 157.586,199.959 157.770,200.046 157.907 C 200.267 158.251,205.648 158.246,206.368 157.901 C 206.670 157.757,207.375 157.467,207.936 157.257 C 208.497 157.047,209.007 156.808,209.070 156.725 C 209.132 156.643,209.381 156.467,209.622 156.334 C 210.713 155.732,210.628 155.416,208.911 153.700 L 207.281 152.069 206.422 152.509 C 205.949 152.750,205.416 153.085,205.238 153.253 C 204.671 153.785,201.366 153.522,200.689 152.891 C 200.388 152.611,200.061 152.381,199.963 152.381 C 199.865 152.381,199.615 152.049,199.407 151.644 C 199.200 151.239,198.916 150.834,198.778 150.745 C 198.188 150.367,198.472 146.675,199.166 145.693 C 200.432 143.900,204.530 142.500,204.937 143.722 C 204.986 143.870,205.140 143.991,205.279 143.991 C 205.418 143.991,205.912 144.255,206.378 144.578 L 207.225 145.164 208.712 143.614 C 210.430 141.823,210.579 141.247,209.467 140.677 C 209.062 140.469,208.679 140.224,208.617 140.131 C 208.461 139.899,206.434 139.229,205.888 139.229 C 205.643 139.229,205.442 139.127,205.442 139.002 C 205.442 138.727,201.401 138.717,200.907 138.991 M251.927 144.753 L 251.927 147.556 251.357 147.447 C 251.044 147.387,250.731 147.248,250.664 147.138 C 250.491 146.859,247.392 146.885,247.392 147.166 C 247.392 147.290,247.188 147.392,246.939 147.392 C 246.442 147.392,244.671 149.082,244.671 149.555 C 244.671 149.717,244.544 149.891,244.388 149.943 C 244.036 150.060,243.984 154.806,244.331 155.054 C 244.456 155.143,244.747 155.588,244.978 156.043 C 245.226 156.531,245.736 157.042,246.225 157.290 C 246.680 157.521,247.107 157.783,247.174 157.872 C 247.515 158.326,249.817 158.322,250.808 157.865 C 251.656 157.474,251.826 157.454,251.890 157.737 C 251.949 158.002,252.322 158.063,253.647 158.028 L 255.329 157.984 255.329 149.967 L 255.329 141.950 253.628 141.950 L 251.927 141.950 251.927 144.753 M257.426 142.771 C 256.288 144.195,257.031 145.805,258.827 145.805 C 260.109 145.805,260.546 145.381,260.537 144.145 C 260.523 142.301,258.513 141.413,257.426 142.771 M288.435 144.886 L 288.435 146.914 287.358 146.983 L 286.281 147.052 286.214 148.583 L 286.147 150.113 287.291 150.113 L 288.435 150.113 288.435 154.092 L 288.435 158.070 290.079 158.003 L 291.723 157.937 291.785 154.025 L 291.847 150.113 293.089 150.113 L 294.331 150.113 294.331 148.885 C 294.331 147.074,294.235 146.939,292.946 146.939 L 291.837 146.939 291.837 144.898 L 291.837 142.857 290.136 142.857 L 288.435 142.857 288.435 144.886 M55.850 144.596 C 55.786 144.762,55.592 144.898,55.418 144.898 C 55.244 144.898,55.102 145.017,55.102 145.163 C 55.102 145.308,55.033 145.358,54.949 145.274 C 54.865 145.190,54.610 145.402,54.384 145.746 C 54.157 146.090,53.971 146.282,53.970 146.171 C 53.969 146.061,53.750 146.248,53.483 146.587 C 53.111 147.061,52.954 147.134,52.806 146.901 C 52.647 146.650,52.614 146.650,52.611 146.904 C 52.607 147.256,51.322 148.525,51.147 148.350 C 51.083 148.287,50.967 148.401,50.889 148.606 C 50.810 148.810,50.665 148.927,50.567 148.866 C 50.468 148.805,50.329 148.908,50.258 149.094 C 50.186 149.281,49.997 149.435,49.837 149.437 C 49.677 149.439,49.291 149.714,48.980 150.047 C 48.668 150.380,48.558 150.565,48.735 150.459 C 48.978 150.313,49.020 150.361,48.907 150.655 C 48.825 150.869,48.848 150.988,48.958 150.920 C 49.068 150.852,49.226 151.077,49.310 151.419 C 49.393 151.761,49.940 152.741,50.524 153.598 C 51.109 154.454,51.778 155.474,52.010 155.864 C 52.444 156.590,53.253 157.657,53.856 158.296 C 54.042 158.493,54.195 158.773,54.195 158.917 C 54.195 159.062,54.399 159.307,54.649 159.463 C 54.898 159.619,55.102 159.854,55.102 159.985 C 55.102 160.116,55.561 160.674,56.122 161.224 C 56.684 161.775,57.143 162.295,57.143 162.378 C 57.143 162.462,57.857 163.262,58.730 164.157 C 59.603 165.051,60.317 165.719,60.317 165.641 C 60.317 165.564,60.496 165.679,60.714 165.897 C 60.933 166.116,61.111 166.395,61.111 166.518 C 61.111 166.641,61.231 166.782,61.377 166.831 C 61.546 166.887,61.598 166.750,61.520 166.453 C 61.451 166.188,61.508 165.986,61.652 165.986 C 61.791 165.986,61.905 165.833,61.905 165.646 C 61.905 165.459,62.024 165.306,62.169 165.306 C 62.315 165.306,62.595 165.159,62.793 164.978 C 62.990 164.798,63.637 164.200,64.229 163.650 C 64.821 163.099,65.313 162.762,65.321 162.900 C 65.330 163.039,65.440 162.940,65.566 162.680 C 65.692 162.421,66.093 162.033,66.457 161.817 C 66.822 161.602,67.120 161.333,67.120 161.220 C 67.120 161.107,67.478 160.771,67.914 160.475 L 68.708 159.935 68.202 159.503 C 67.776 159.139,67.745 159.134,68.007 159.473 C 68.178 159.694,68.264 159.929,68.198 159.996 C 68.131 160.062,67.864 159.819,67.605 159.455 C 67.346 159.090,67.184 158.742,67.246 158.680 C 67.307 158.618,67.183 158.426,66.969 158.252 C 66.631 157.979,66.606 157.982,66.780 158.277 C 66.954 158.572,66.929 158.575,66.591 158.301 C 66.377 158.127,66.248 157.939,66.305 157.883 C 66.361 157.826,65.904 157.272,65.290 156.651 C 64.675 156.030,64.172 155.435,64.172 155.328 C 64.172 155.222,63.942 154.949,63.661 154.722 C 63.380 154.494,62.954 154.002,62.714 153.628 C 62.475 153.254,62.157 152.846,62.007 152.721 C 61.603 152.384,58.730 148.111,58.730 147.847 C 58.730 147.722,58.633 147.619,58.514 147.619 C 58.395 147.619,58.118 147.236,57.898 146.769 C 57.678 146.301,57.316 145.721,57.094 145.479 C 56.871 145.237,56.689 144.871,56.689 144.666 C 56.689 144.221,56.015 144.164,55.850 144.596 M318.821 146.939 C 314.592 147.713,314.451 152.662,318.628 153.727 C 321.014 154.335,321.463 155.103,319.431 155.101 C 318.282 155.099,316.811 154.466,317.156 154.121 C 317.240 154.037,317.211 153.968,317.092 153.968 C 316.972 153.968,316.420 154.434,315.864 155.002 L 314.853 156.037 315.700 156.816 C 316.165 157.245,316.744 157.596,316.985 157.596 C 317.225 157.596,317.465 157.724,317.517 157.880 C 317.677 158.360,321.588 158.263,322.085 157.766 C 322.303 157.548,322.604 157.370,322.754 157.370 C 323.371 157.370,323.868 155.869,323.768 154.303 C 323.651 152.460,322.987 151.730,320.990 151.251 C 320.296 151.084,319.728 150.874,319.728 150.784 C 319.728 150.694,319.514 150.564,319.252 150.495 C 318.536 150.308,318.962 149.887,319.866 149.887 C 320.732 149.887,321.900 150.395,322.047 150.836 C 322.102 150.999,322.598 150.657,323.249 150.006 C 323.884 149.371,324.240 148.859,324.083 148.806 C 323.933 148.756,323.810 148.587,323.810 148.431 C 323.810 147.638,320.465 146.638,318.821 146.939 M214.739 147.120 C 214.739 147.220,214.391 147.427,213.965 147.581 C 210.231 148.932,209.902 155.569,213.486 157.269 C 213.988 157.508,214.472 157.806,214.561 157.933 C 214.859 158.357,218.685 158.218,219.137 157.766 C 219.355 157.548,219.643 157.370,219.778 157.370 C 221.332 157.370,223.534 151.403,222.278 150.596 C 222.156 150.518,221.978 150.198,221.883 149.887 C 221.624 149.043,220.441 147.929,219.459 147.605 C 218.983 147.448,218.594 147.234,218.594 147.129 C 218.594 147.024,217.727 146.939,216.667 146.939 C 215.607 146.939,214.739 147.020,214.739 147.120 M226.984 147.129 C 226.984 147.234,226.590 147.450,226.109 147.609 C 225.092 147.944,224.125 148.885,223.780 149.874 C 223.647 150.255,223.446 150.567,223.334 150.567 C 223.221 150.567,223.129 151.383,223.129 152.381 C 223.129 153.379,223.219 154.195,223.328 154.195 C 223.437 154.195,223.590 154.513,223.667 154.902 C 223.824 155.686,225.229 157.217,226.020 157.466 C 226.301 157.555,226.531 157.700,226.531 157.789 C 226.531 158.215,230.876 158.278,231.018 157.854 C 231.065 157.712,231.295 157.596,231.529 157.596 C 231.904 157.596,233.191 156.480,233.938 155.506 C 234.840 154.331,234.892 149.887,234.003 149.887 C 233.884 149.887,233.787 149.758,233.787 149.601 C 233.787 149.097,232.656 148.075,231.461 147.499 C 230.293 146.935,226.984 146.662,226.984 147.129 M235.896 152.438 L 235.941 157.937 237.569 158.003 L 239.198 158.069 239.270 154.441 C 239.356 150.106,239.406 150.015,241.556 150.232 C 242.678 150.345,242.884 150.306,243.018 149.955 C 243.103 149.730,243.414 149.356,243.708 149.123 C 244.362 148.606,244.307 147.821,243.594 147.509 C 243.313 147.385,243.084 147.207,243.084 147.112 C 243.084 147.017,242.421 146.939,241.610 146.939 C 240.799 146.939,240.136 147.029,240.136 147.139 C 240.136 147.488,239.266 147.588,239.137 147.254 C 239.050 147.027,238.575 146.939,237.433 146.939 L 235.850 146.939 235.896 152.438 M257.280 147.297 C 257.205 147.495,257.143 149.995,257.143 152.853 L 257.143 158.050 258.730 158.050 L 260.317 158.050 260.317 152.494 L 260.317 146.939 258.868 146.939 C 257.755 146.939,257.386 147.022,257.280 147.297 M262.469 147.449 C 262.400 147.730,262.372 150.204,262.408 152.948 L 262.472 157.937 264.096 158.003 L 265.719 158.069 265.796 154.442 C 265.882 150.401,265.906 150.336,267.384 150.194 C 269.164 150.024,269.263 150.238,269.347 154.441 L 269.419 158.069 271.047 158.003 L 272.676 157.937 272.738 154.211 C 272.814 149.704,271.967 147.392,270.240 147.392 C 270.021 147.392,269.841 147.290,269.841 147.166 C 269.841 146.872,266.956 146.866,266.856 147.159 C 266.739 147.497,265.636 147.558,265.703 147.222 C 265.822 146.628,262.615 146.853,262.469 147.449 M277.324 147.141 C 277.324 147.252,277.056 147.410,276.728 147.493 C 273.303 148.352,272.886 155.607,276.161 157.346 C 276.489 157.520,276.830 157.775,276.919 157.913 C 277.234 158.400,280.882 158.230,281.276 157.710 C 281.581 157.305,281.619 157.299,281.625 157.653 C 281.632 157.995,281.868 158.050,283.340 158.050 L 285.048 158.050 285.026 152.528 L 285.005 147.007 283.430 146.961 C 282.254 146.926,281.823 146.995,281.732 147.233 C 281.600 147.577,280.499 147.493,280.499 147.139 C 280.499 147.029,279.785 146.939,278.912 146.939 C 278.039 146.939,277.324 147.030,277.324 147.141 M298.413 147.140 C 298.413 147.251,298.081 147.405,297.676 147.482 C 296.980 147.615,295.238 149.007,295.238 149.431 C 295.238 149.539,295.071 149.795,294.867 149.999 C 293.800 151.066,294.425 154.990,295.902 156.492 C 297.536 158.155,300.939 158.709,302.834 157.621 C 303.872 157.025,304.989 156.030,304.989 155.701 C 304.989 155.578,305.167 155.281,305.385 155.039 C 305.703 154.689,305.782 154.183,305.782 152.512 C 305.782 149.847,305.058 148.581,302.949 147.562 C 301.648 146.933,298.413 146.632,298.413 147.140 M307.407 147.090 C 307.324 147.173,307.256 149.678,307.256 152.655 L 307.256 158.070 308.900 158.003 L 310.544 157.937 310.658 154.270 C 310.788 150.054,310.706 150.227,312.578 150.227 C 314.100 150.227,314.724 149.856,315.415 148.544 C 315.718 147.967,315.303 147.392,314.583 147.392 C 314.419 147.392,314.286 147.290,314.286 147.166 C 314.286 147.038,313.643 146.939,312.812 146.939 C 311.980 146.939,311.338 147.038,311.338 147.166 C 311.338 147.290,311.134 147.392,310.884 147.392 C 310.635 147.392,310.431 147.290,310.431 147.166 C 310.431 146.915,307.651 146.846,307.407 147.090 M218.375 150.801 C 220.174 152.642,218.322 155.695,215.915 154.856 C 214.171 154.248,213.887 151.161,215.502 150.379 C 216.500 149.895,217.655 150.065,218.375 150.801 M230.004 150.377 C 231.076 150.948,231.424 152.054,230.996 153.532 C 230.271 156.037,226.531 155.149,226.531 152.471 C 226.531 150.647,228.397 149.522,230.004 150.377 M251.265 150.776 C 253.145 152.657,251.036 155.884,248.662 154.757 C 247.488 154.201,247.019 152.542,247.645 151.168 C 248.203 149.944,250.214 149.726,251.265 150.776 M280.602 150.336 C 280.924 150.459,281.288 150.841,281.410 151.186 C 281.533 151.532,281.744 152.006,281.880 152.241 C 282.037 152.511,282.047 152.720,281.909 152.808 C 281.788 152.885,281.616 153.289,281.525 153.706 C 281.175 155.318,278.598 155.523,277.705 154.009 C 276.366 151.739,278.194 149.421,280.602 150.336 M301.401 150.389 C 302.776 151.038,302.849 153.963,301.506 154.603 C 300.101 155.272,298.899 155.009,298.200 153.878 C 296.856 151.703,299.070 149.289,301.401 150.389 " stroke="none" fill="#04049c" fill-rule="evenodd"></path></g></svg>